:FULLY-SPECIFIED
:FORCE-ALL-JOINTS-BE-3DOF
:DEGREES
577
root 6.98616 16.3853 -3.57502 -166.389 76.6361 -173.35
lfemur -16.7207 -3.88822 -19.5006
ltibia 44.1366 0 0
lfoot -32.3404 10.9386 0
ltoes 8.27738 0 0
rfemur -52.6444 -12.8645 14.1811
rtibia 49.4582 0 0
rfoot 10.4775 4.48723 0
rtoes -29.2361 0 0
lowerback 6.637 -0.633186 -2.33342
upperback 2.35763 -0.838215 3.37578
thorax -1.19912 -0.396767 4.8715
lowerneck -5.43042 -13.4564 -3.96473
upperneck 10.6034 -18.2292 5.03654
head 4.89991 -8.81078 0.983883
lclavicle 2.76311e-14 -8.74653e-15 0
lhumerus -39.7747 -17.7282 92.528
lradius 55.1169 0 0
lwrist 23.5346 0 0
lhand -21.3303 -3.70658 0
lfingers 7.12502 0 0
lthumb 5.05547 26.2131 0
rclavicle 2.76311e-14 -8.74653e-15 0
rhumerus 28.6651 15.104 -73.8421
rradius 133.841 0 0
rwrist -46.1452 0 0
rhand -25.766 -21.3945 0
rfingers 7.12502 0 0
rthumb 0.771761 -771.373 0
578
root 6.931 16.3913 -3.56413 -165.358 77.3856 -172.236
lfemur -16.7063 -3.48326 -19.4955
ltibia 44.0168 0 0
lfoot -32.2953 11.1192 0
ltoes 8.37448 0 0
rfemur -52.6012 -13.1109 14.2656
rtibia 51.1122 0 0
rfoot 11.2043 5.19389 0
rtoes -27.9991 0 0
lowerback 6.451 -0.647516 -2.45146
upperback 2.31869 -0.868493 3.27097
thorax -1.13256 -0.415081 4.82799
lowerneck -5.47483 -13.4314 -3.9215
upperneck 10.7895 -18.2138 5.06977
head 4.96373 -8.79281 0.978633
lclavicle 2.73412e-14 -6.85808e-15 0
lhumerus -38.6472 -18.4492 91.7649
lradius 54.877 0 0
lwrist 23.7533 0 0
lhand -21.1858 -3.46564 0
lfingers 7.12502 0 0
lthumb 5.195 26.4505 0
rclavicle 2.73412e-14 -6.85808e-15 0
rhumerus 28.464 15.1939 -73.7949
rradius 133.874 0 0
rwrist -46.013 0 0
rhand -25.6631 -21.1669 0
rfingers 7.12502 0 0
rthumb 0.871121 -771.145 0
579
root 6.87583 16.3973 -3.55324 -164.328 78.1352 -171.121
lfemur -16.692 -3.0783 -19.4904
ltibia 43.8969 0 0
lfoot -32.2502 11.2998 0
ltoes 8.47158 0 0
rfemur -52.5579 -13.3572 14.3501
rtibia 52.7661 0 0
rfoot 11.9312 5.90055 0
rtoes -26.762 0 0
lowerback 6.265 -0.661845 -2.56949
upperback 2.27975 -0.89877 3.16615
thorax -1.06601 -0.433394 4.78448
lowerneck -5.51924 -13.4064 -3.87827
upperneck 10.9755 -18.1984 5.103
head 5.02754 -8.77485 0.973384
lclavicle 2.70513e-14 -4.96962e-15 0
lhumerus -37.5197 -19.1702 91.0019
lradius 54.637 0 0
lwrist 23.9721 0 0
lhand -21.0413 -3.22469 0
lfingers 7.12502 0 0
lthumb 5.33453 26.6878 0
rclavicle 2.70513e-14 -4.96962e-15 0
rhumerus 28.2629 15.2839 -73.7477
rradius 133.906 0 0
rwrist -45.8809 0 0
rhand -25.5602 -20.9393 0
rfingers 7.12502 0 0
rthumb 0.970481 -770.917 0
580
root 6.82066 16.4032 -3.54235 -163.297 78.8847 -170.007
lfemur -16.6776 -2.67333 -19.4853
ltibia 43.7771 0 0
lfoot -32.2052 11.4804 0
ltoes 8.56869 0 0
rfemur -52.5147 -13.6036 14.4347
rtibia 54.4201 0 0
rfoot 12.658 6.60721 0
rtoes -25.525 0 0
lowerback 6.079 -0.676175 -2.68753
upperback 2.2408 -0.929048 3.06134
thorax -0.999451 -0.451708 4.74097
lowerneck -5.56365 -13.3815 -3.83505
upperneck 11.1616 -18.1831 5.13623
head 5.09136 -8.75689 0.968134
lclavicle 2.67614e-14 -3.08117e-15 0
lhumerus -36.3923 -19.8912 90.2389
lradius 54.3971 0 0
lwrist 24.1908 0 0
lhand -20.8968 -2.98374 0
lfingers 7.12502 0 0
lthumb 5.47406 26.9252 0
rclavicle 2.67614e-14 -3.08117e-15 0
rhumerus 28.0618 15.3739 -73.7005
rradius 133.939 0 0
rwrist -45.7487 0 0
rhand -25.4573 -20.7117 0
rfingers 7.12502 0 0
rthumb 1.06984 -770.688 0
581
root 6.7655 16.4092 -3.53146 -162.266 79.6343 -168.892
lfemur -16.6632 -2.26837 -19.4801
ltibia 43.6573 0 0
lfoot -32.1601 11.661 0
ltoes 8.66579 0 0
rfemur -52.4714 -13.85 14.5192
rtibia 56.0741 0 0
rfoot 13.3848 7.31386 0
rtoes -24.288 0 0
lowerback 5.893 -0.690504 -2.80557
upperback 2.20186 -0.959325 2.95653
thorax -0.932895 -0.470022 4.69746
lowerneck -5.60806 -13.3565 -3.79182
upperneck 11.3477 -18.1677 5.16947
head 5.15517 -8.73892 0.962884
lclavicle 2.64715e-14 -1.19271e-15 0
lhumerus -35.2648 -20.6122 89.4758
lradius 54.1571 0 0
lwrist 24.4095 0 0
lhand -20.7522 -2.7428 0
lfingers 7.12502 0 0
lthumb 5.61359 27.1625 0
rclavicle 2.64715e-14 -1.19271e-15 0
rhumerus 27.8607 15.4638 -73.6533
rradius 133.972 0 0
rwrist -45.6165 0 0
rhand -25.3545 -20.4841 0
rfingers 7.12502 0 0
rthumb 1.1692 -770.46 0
582
root 6.71033 16.4152 -3.52057 -161.236 80.3838 -167.778
lfemur -16.6489 -1.86341 -19.475
ltibia 43.5374 0 0
lfoot -32.115 11.8416 0
ltoes 8.76289 0 0
rfemur -52.4282 -14.0963 14.6037
rtibia 57.728 0 0
rfoot 14.1117 8.02052 0
rtoes -23.0509 0 0
lowerback 5.707 -0.704834 -2.9236
upperback 2.16292 -0.989602 2.85171
thorax -0.866339 -0.488335 4.65395
lowerneck -5.65247 -13.3315 -3.74859
upperneck 11.5337 -18.1523 5.2027
head 5.21898 -8.72096 0.957635
lclavicle 2.61816e-14 6.95745e-16 0
lhumerus -34.1373 -21.3332 88.7128
lradius 53.9171 0 0
lwrist 24.6283 0 0
lhand -20.6077 -2.50185 0
lfingers 7.12502 0 0
lthumb 5.75312 27.3999 0
rclavicle 2.61816e-14 6.95745e-16 0
rhumerus 27.6596 15.5538 -73.6061
rradius 134.004 0 0
rwrist -45.4844 0 0
rhand -25.2516 -20.2565 0
rfingers 7.12502 0 0
rthumb 1.26856 -770.232 0
583
root 6.65517 16.4212 -3.50968 -160.205 81.1334 -166.663
lfemur -16.6345 -1.45845 -19.4699
ltibia 43.4176 0 0
lfoot -32.0699 12.0222 0
ltoes 8.85999 0 0
rfemur -52.3849 -14.3427 14.6882
rtibia 59.382 0 0
rfoot 14.8385 8.72718 0
rtoes -21.8139 0 0
lowerback 5.521 -0.719163 -3.04164
upperback 2.12398 -1.01988 2.7469
thorax -0.799783 -0.506649 4.61044
lowerneck -5.69688 -13.3065 -3.70536
upperneck 11.7198 -18.1369 5.23593
head 5.2828 -8.70299 0.952385
lclavicle 2.58917e-14 2.5842e-15 0
lhumerus -33.0098 -22.0542 87.9497
lradius 53.6772 0 0
lwrist 24.847 0 0
lhand -20.4632 -2.26091 0
lfingers 7.12502 0 0
lthumb 5.89265 27.6372 0
rclavicle 2.58917e-14 2.5842e-15 0
rhumerus 27.4585 15.6437 -73.5589
rradius 134.037 0 0
rwrist -45.3522 0 0
rhand -25.1487 -20.0289 0
rfingers 7.12502 0 0
rthumb 1.36792 -770.004 0
584
root 6.608 16.4163 -3.49314 -156.829 81.8421 -163.124
lfemur -16.6836 -0.266873 -19.3707
ltibia 43.6102 0 0
lfoot -32.0318 12.0775 0
ltoes 7.72158 0 0
rfemur -51.4958 -14.0889 14.7361
rtibia 59.1943 0 0
rfoot 14.3096 8.66319 0
rtoes -21.2879 0 0
lowerback 5.41913 -0.778678 -3.32869
upperback 2.1213 -1.1134 2.69432
thorax -0.729032 -0.557717 4.72138
lowerneck -5.66084 -13.29 -3.72578
upperneck 11.7944 -18.1408 5.39457
head 5.31745 -8.69404 0.999801
lclavicle 2.3235e-14 3.07288e-15 0
lhumerus -31.9226 -22.67 87.5288
lradius 53.5816 0 0
lwrist 24.7915 0 0
lhand -20.3465 -2.25526 0
lfingers 7.12502 0 0
lthumb 6.00533 27.6395 0
rclavicle 2.3235e-14 3.07288e-15 0
rhumerus 27.1446 15.8075 -73.4546
rradius 134.028 0 0
rwrist -45.1568 0 0
rhand -25.2331 -19.8877 0
rfingers 7.12502 0 0
rthumb 1.28642 -769.863 0
585
root 6.56083 16.4113 -3.4766 -153.453 82.5508 -159.585
lfemur -16.7326 0.924703 -19.2715
ltibia 43.8027 0 0
lfoot -31.9936 12.1329 0
ltoes 6.58317 0 0
rfemur -50.6068 -13.835 14.784
rtibia 59.0066 0 0
rfoot 13.7808 8.5992 0
rtoes -20.7618 0 0
lowerback 5.31727 -0.838192 -3.61573
upperback 2.11862 -1.20692 2.64174
thorax -0.658281 -0.608786 4.83232
lowerneck -5.62479 -13.2735 -3.74621
upperneck 11.8691 -18.1447 5.55321
head 5.3521 -8.68508 1.04722
lclavicle 2.05784e-14 3.56156e-15 0
lhumerus -30.8354 -23.2857 87.108
lradius 53.486 0 0
lwrist 24.7359 0 0
lhand -20.2298 -2.24961 0
lfingers 7.12502 0 0
lthumb 6.11802 27.6418 0
rclavicle 2.05784e-14 3.56156e-15 0
rhumerus 26.8307 15.9713 -73.3503
rradius 134.019 0 0
rwrist -44.9614 0 0
rhand -25.3175 -19.7465 0
rfingers 7.12502 0 0
rthumb 1.20493 -769.723 0
586
root 6.51366 16.4064 -3.46006 -150.077 83.2594 -156.046
lfemur -16.7817 2.11628 -19.1723
ltibia 43.9953 0 0
lfoot -31.9555 12.1882 0
ltoes 5.44475 0 0
rfemur -49.7177 -13.5812 14.8318
rtibia 58.8188 0 0
rfoot 13.2519 8.53521 0
rtoes -20.2357 0 0
lowerback 5.21541 -0.897706 -3.90278
upperback 2.11594 -1.30043 2.58917
thorax -0.58753 -0.659855 4.94326
lowerneck -5.58875 -13.2569 -3.76663
upperneck 11.9437 -18.1486 5.71185
head 5.38675 -8.67613 1.09463
lclavicle 1.79217e-14 4.05024e-15 0
lhumerus -29.7481 -23.9015 86.6871
lradius 53.3903 0 0
lwrist 24.6804 0 0
lhand -20.1131 -2.24396 0
lfingers 7.12502 0 0
lthumb 6.2307 27.6441 0
rclavicle 1.79217e-14 4.05024e-15 0
rhumerus 26.5168 16.1351 -73.246
rradius 134.01 0 0
rwrist -44.766 0 0
rhand -25.4019 -19.6053 0
rfingers 7.12502 0 0
rthumb 1.12343 -769.582 0
587
root 6.46649 16.4015 -3.44351 -146.702 83.9681 -152.506
lfemur -16.8308 3.30786 -19.0731
ltibia 44.1879 0 0
lfoot -31.9174 12.2435 0
ltoes 4.30634 0 0
rfemur -48.8286 -13.3274 14.8797
rtibia 58.6311 0 0
rfoot 12.723 8.47122 0
rtoes -19.7097 0 0
lowerback 5.11354 -0.957221 -4.18982
upperback 2.11327 -1.39395 2.53659
thorax -0.516778 -0.710923 5.0542
lowerneck -5.55271 -13.2404 -3.78705
upperneck 12.0183 -18.1524 5.8705
head 5.4214 -8.66718 1.14205
lclavicle 1.5265e-14 4.53891e-15 0
lhumerus -28.6609 -24.5172 86.2662
lradius 53.2947 0 0
lwrist 24.6249 0 0
lhand -19.9963 -2.23831 0
lfingers 7.12502 0 0
lthumb 6.34338 27.6465 0
rclavicle 1.5265e-14 4.53891e-15 0
rhumerus 26.2029 16.2989 -73.1417
rradius 134 0 0
rwrist -44.5706 0 0
rhand -25.4862 -19.4641 0
rfingers 7.12502 0 0
rthumb 1.04194 -769.441 0
588
root 6.41932 16.3965 -3.42697 -143.326 84.6768 -148.967
lfemur -16.8798 4.49943 -18.9739
ltibia 44.3804 0 0
lfoot -31.8792 12.2989 0
ltoes 3.16793 0 0
rfemur -47.9396 -13.0735 14.9276
rtibia 58.4434 0 0
rfoot 12.1942 8.40723 0
rtoes -19.1837 0 0
lowerback 5.01168 -1.01674 -4.47687
upperback 2.11059 -1.48747 2.48401
thorax -0.446027 -0.761991 5.16514
lowerneck -5.51666 -13.2239 -3.80748
upperneck 12.093 -18.1563 6.02914
head 5.45605 -8.65822 1.18946
lclavicle 1.26083e-14 5.02759e-15 0
lhumerus -27.5737 -25.133 85.8454
lradius 53.1991 0 0
lwrist 24.5693 0 0
lhand -19.8796 -2.23266 0
lfingers 7.12502 0 0
lthumb 6.45607 27.6488 0
rclavicle 1.26083e-14 5.02759e-15 0
rhumerus 25.889 16.4627 -73.0374
rradius 133.991 0 0
rwrist -44.3752 0 0
rhand -25.5706 -19.3229 0
rfingers 7.12502 0 0
rthumb 0.960442 -769.301 0
589
root 6.37215 16.3916 -3.41043 -139.95 85.3855 -145.428
lfemur -16.9289 5.69101 -18.8747
ltibia 44.573 0 0
lfoot -31.8411 12.3542 0
ltoes 2.02952 0 0
rfemur -47.0505 -12.8197 14.9755
rtibia 58.2557 0 0
rfoot 11.6653 8.34324 0
rtoes -18.6576 0 0
lowerback 4.90981 -1.07625 -4.76391
upperback 2.10791 -1.58099 2.43143
thorax -0.375276 -0.81306 5.27608
lowerneck -5.48062 -13.2074 -3.8279
upperneck 12.1676 -18.1602 6.18778
head 5.4907 -8.64927 1.23688
lclavicle 9.95166e-15 5.51627e-15 0
lhumerus -26.4865 -25.7487 85.4245
lradius 53.1035 0 0
lwrist 24.5138 0 0
lhand -19.7629 -2.22701 0
lfingers 7.12502 0 0
lthumb 6.56875 27.6511 0
rclavicle 9.95166e-15 5.51627e-15 0
rhumerus 25.5751 16.6265 -72.9331
rradius 133.982 0 0
rwrist -44.1798 0 0
rhand -25.655 -19.1817 0
rfingers 7.12502 0 0
rthumb 0.878946 -769.16 0
590
root 6.32648 16.3926 -3.40814 -120.479 85.1133 -125.999
lfemur -17.0632 7.28309 -18.9179
ltibia 44.6327 0 0
lfoot -31.7879 12.4747 0
ltoes 1.66111 0 0
rfemur -46.5684 -12.463 15.3894
rtibia 56.9349 0 0
rfoot 10.6567 8.9825 0
rtoes -19.8803 0 0
lowerback 4.72601 -1.13596 -5.0253
upperback 2.0426 -1.66703 2.30881
thorax -0.323877 -0.858733 5.29505
lowerneck -5.50238 -13.1286 -3.79717
upperneck 12.3481 -18.0873 6.29843
head 5.55495 -8.59854 1.26367
lclavicle 1.22025e-14 3.86802e-15 0
lhumerus -25.9418 -26.2347 85.4317
lradius 53.1894 0 0
lwrist 24.5674 0 0
lhand -19.5453 -2.25953 0
lfingers 7.12502 0 0
lthumb 6.77875 27.6114 0
rclavicle 1.22025e-14 3.86802e-15 0
rhumerus 25.3007 16.4229 -73.0064
rradius 133.782 0 0
rwrist -44.618 0 0
rhand -25.9818 -19.4418 0
rfingers 7.12502 0 0
rthumb 0.56335 -769.42 0
